<?xml version="1.0" encoding="UTF-8"?>
<!DOCTYPE svg PUBLIC "-//W3C//DTD SVG 1.1//EN" "http://www.w3.org/Graphics/SVG/1.1/DTD/svg11.dtd">
<svg xmlns="http://www.w3.org/2000/svg" version="1.1" width="554px" height="372px" style="shape-rendering:geometricPrecision; text-rendering:geometricPrecision; image-rendering:optimizeQuality; fill-rule:evenodd; clip-rule:evenodd" xmlns:xlink="http://www.w3.org/1999/xlink">
<g><path style="opacity:0.975" fill="#fbfbfc" d="M 157.5,-0.5 C 177.167,-0.5 196.833,-0.5 216.5,-0.5C 216.5,19.8333 216.5,40.1667 216.5,60.5C 196.833,60.5 177.167,60.5 157.5,60.5C 157.5,40.1667 157.5,19.8333 157.5,-0.5 Z"/></g>
<g><path style="opacity:0.94" fill="#fcfcfd" d="M 241.5,-0.5 C 260.833,-0.5 280.167,-0.5 299.5,-0.5C 299.5,19.8333 299.5,40.1667 299.5,60.5C 280.167,60.5 260.833,60.5 241.5,60.5C 241.5,40.1667 241.5,19.8333 241.5,-0.5 Z"/></g>
<g><path style="opacity:1" fill="#ececed" d="M 245.5,1.5 C 262.5,1.5 279.5,1.5 296.5,1.5C 296.5,20.5 296.5,39.5 296.5,58.5C 291.5,58.5 286.5,58.5 281.5,58.5C 281.5,52.8333 281.5,47.1667 281.5,41.5C 279.876,41.3601 278.71,42.0267 278,43.5C 277.501,48.4889 277.334,53.4889 277.5,58.5C 275.833,58.5 274.167,58.5 272.5,58.5C 271.71,52.0889 272.71,46.0889 275.5,40.5C 273.578,37.5357 270.911,35.5357 267.5,34.5C 268.932,24.7939 268.598,15.1273 266.5,5.5C 265.77,7.34126 265.103,9.17459 264.5,11C 264.957,11.414 265.291,11.914 265.5,12.5C 264.708,18.449 264.208,24.449 264,30.5C 263,29.1667 262,27.8333 261,26.5C 260.5,27 260,27.5 259.5,28C 260.435,30.3806 260.768,32.8806 260.5,35.5C 261.675,35.281 262.675,35.6143 263.5,36.5C 260.048,40.5073 259.881,44.5073 263,48.5C 263.498,51.4816 263.665,54.4816 263.5,57.5C 257.5,57.5 251.5,57.5 245.5,57.5C 245.5,38.8333 245.5,20.1667 245.5,1.5 Z"/></g>
<g><path style="opacity:1" fill="#ebeced" d="M 161.5,1.5 C 178.167,1.5 194.833,1.5 211.5,1.5C 211.5,20.1667 211.5,38.8333 211.5,57.5C 194.833,57.5 178.167,57.5 161.5,57.5C 161.5,38.8333 161.5,20.1667 161.5,1.5 Z"/></g>
<g><path style="opacity:1" fill="#f7f7f8" d="M 180.5,5.5 C 181.5,5.5 182.5,5.5 183.5,5.5C 183.5,6.83333 183.5,8.16667 183.5,9.5C 182.167,9.5 180.833,9.5 179.5,9.5C 180.044,11.5795 180.878,13.5795 182,15.5C 185.504,13.6526 189.337,12.6526 193.5,12.5C 193.5,11.5 193.5,10.5 193.5,9.5C 192.167,9.5 190.833,9.5 189.5,9.5C 189.5,8.5 189.5,7.5 189.5,6.5C 196.11,6.12849 200.11,9.12849 201.5,15.5C 201.61,17.374 200.944,18.874 199.5,20C 195.727,21.3536 192.06,22.8536 188.5,24.5C 191.446,25.6548 194.446,25.8214 197.5,25C 200.102,22.8685 202.768,21.0352 205.5,19.5C 206.178,23.2727 204.844,26.106 201.5,28C 197.351,29.7368 193.017,30.7368 188.5,31C 194.826,33.4093 200.826,32.9093 206.5,29.5C 207.583,30.365 207.749,31.365 207,32.5C 203.446,34.8793 202.613,38.046 204.5,42C 204.336,49.6846 200.669,52.5179 193.5,50.5C 190.801,48.1019 189.467,45.1019 189.5,41.5C 187.833,41.5 186.167,41.5 184.5,41.5C 184.892,38.2784 184.392,35.2784 183,32.5C 181.028,35.8887 178.028,37.222 174,36.5C 169.551,37.5145 166.718,35.8478 165.5,31.5C 165.556,30.263 166.056,29.263 167,28.5C 167.5,30.3333 168.667,31.5 170.5,32C 174.362,32.9133 178.028,32.5799 181.5,31C 176.648,30.5877 172.481,28.7544 169,25.5C 168.503,23.1902 168.337,20.8568 168.5,18.5C 169.552,18.6495 170.552,18.4828 171.5,18C 170.62,16.6439 170.286,15.1439 170.5,13.5C 171.833,13.5 173.167,13.5 174.5,13.5C 174.626,9.37965 176.626,6.71298 180.5,5.5 Z"/></g>
<g><path style="opacity:0.996" fill="#3c140a" d="M 430.5,84.5 C 429.022,84.238 427.689,84.5713 426.5,85.5C 425.399,87.6416 424.399,89.8083 423.5,92C 422.5,92.6667 421.5,92.6667 420.5,92C 424.349,72.4686 416.515,61.9686 397,60.5C 390.125,60.6788 384.125,63.0121 379,67.5C 375.171,74.969 373.504,82.969 374,91.5C 372.88,89.9698 372.046,88.3032 371.5,86.5C 370.185,75.1537 370.685,63.8203 373,52.5C 380.46,47.9051 388.626,45.9051 397.5,46.5C 422.88,46.8706 433.88,59.5373 430.5,84.5 Z"/></g>
<g><path style="opacity:0.998" fill="#fb9e85" d="M 430.5,84.5 C 433.554,89.8532 432.387,94.1865 427,97.5C 425.522,109.145 419.022,116.145 407.5,118.5C 406.702,118.957 406.369,119.624 406.5,120.5C 403.759,124.202 400.093,125.702 395.5,125C 394.29,123.961 393.29,122.794 392.5,121.5C 392.5,121.167 392.5,120.833 392.5,120.5C 392.631,119.624 392.298,118.957 391.5,118.5C 379.496,117.004 373.33,110.337 373,98.5C 369.1,94.7933 368.6,90.7933 371.5,86.5C 372.046,88.3032 372.88,89.9698 374,91.5C 373.504,82.969 375.171,74.969 379,67.5C 384.125,63.0121 390.125,60.6788 397,60.5C 416.515,61.9686 424.349,72.4686 420.5,92C 421.5,92.6667 422.5,92.6667 423.5,92C 424.399,89.8083 425.399,87.6416 426.5,85.5C 427.689,84.5713 429.022,84.238 430.5,84.5 Z"/></g>
<g><path style="opacity:1" fill="#663223" d="M 381.5,84.5 C 384.352,84.3524 386.019,85.6857 386.5,88.5C 385.875,91.9865 384.042,92.9865 381,91.5C 380.444,89.1152 380.61,86.7819 381.5,84.5 Z"/></g>
<g><path style="opacity:1" fill="#5e2c1e" d="M 406.5,85.5 C 411.341,87.5439 411.675,90.2105 407.5,93.5C 403.933,91.2347 403.6,88.568 406.5,85.5 Z"/></g>
<g><path style="opacity:1" fill="#fefdfd" d="M 383.5,98.5 C 391.672,98.0343 399.672,98.5343 407.5,100C 403.528,108.218 397.194,110.551 388.5,107C 385.404,104.971 383.738,102.138 383.5,98.5 Z"/></g>
<g><path style="opacity:1" fill="#a2ced9" d="M 406.5,120.5 C 407.492,120.328 408.158,120.662 408.5,121.5C 410.349,122.593 412.016,123.926 413.5,125.5C 409.503,135.155 405.503,144.822 401.5,154.5C 401.737,153.209 401.404,152.209 400.5,151.5C 399.751,147.181 399.585,142.848 400,138.5C 401.022,137.646 401.855,136.646 402.5,135.5C 399.5,127.5 396.5,127.5 393.5,135.5C 394.383,136.548 395.05,137.715 395.5,139C 394.868,142.88 394.201,146.713 393.5,150.5C 391.311,142.392 389.645,134.059 388.5,125.5C 389.5,123.833 390.833,122.5 392.5,121.5C 393.29,122.794 394.29,123.961 395.5,125C 400.093,125.702 403.759,124.202 406.5,120.5 Z"/></g>
<g><path style="opacity:1" fill="#6c6c6c" d="M 392.5,120.5 C 392.5,120.833 392.5,121.167 392.5,121.5C 390.833,122.5 389.5,123.833 388.5,125.5C 385.214,128.4 383.214,132.067 382.5,136.5C 380.001,146.342 380.001,156.342 382.5,166.5C 384.261,167.035 385.594,168.035 386.5,169.5C 386.5,169.833 386.5,170.167 386.5,170.5C 379.573,166.49 375.906,168.49 375.5,176.5C 375.167,177.5 374.5,178.167 373.5,178.5C 373.338,176.473 373.505,174.473 374,172.5C 375.349,169.349 377.182,166.682 379.5,164.5C 375.791,150.371 377.457,137.038 384.5,124.5C 386.579,122.127 389.246,120.794 392.5,120.5 Z"/></g>
<g><path style="opacity:1" fill="#e9e8e9" d="M 414.5,123.5 C 418.897,123.425 423.23,123.925 427.5,125C 430.684,125.754 433.351,127.254 435.5,129.5C 441.966,140.439 446.799,152.105 450,164.5C 450.667,168.833 450.667,173.167 450,177.5C 448.472,182.201 445.305,184.868 440.5,185.5C 440.5,184.833 440.5,184.167 440.5,183.5C 439.081,182.549 437.415,182.216 435.5,182.5C 436.473,180.932 436.64,179.265 436,177.5C 433.791,171.269 431.291,165.269 428.5,159.5C 427.432,158.566 426.099,158.232 424.5,158.5C 425.507,148.928 424.007,139.595 420,130.5C 418.334,128.004 416.5,125.671 414.5,123.5 Z"/></g>
<g><path style="opacity:0.969" fill="#dadbdb" d="M 384.5,124.5 C 377.457,137.038 375.791,150.371 379.5,164.5C 377.182,166.682 375.349,169.349 374,172.5C 373.505,174.473 373.338,176.473 373.5,178.5C 368.291,181.598 363.291,184.932 358.5,188.5C 351.978,188.823 345.645,188.49 339.5,187.5C 341.616,185.912 341.949,183.912 340.5,181.5C 338.402,181.043 336.736,180.043 335.5,178.5C 346.076,179.014 356.243,177.347 366,173.5C 365.099,160.441 365.766,147.441 368,134.5C 371.983,128.755 377.483,125.421 384.5,124.5 Z"/></g>
<g><path style="opacity:1" fill="#f4f4f2" d="M 388.5,125.5 C 389.645,134.059 391.311,142.392 393.5,150.5C 393.287,153.451 393.954,156.118 395.5,158.5C 394.624,158.369 393.957,158.702 393.5,159.5C 394.506,160.396 394.506,161.062 393.5,161.5C 391.351,157.563 390.018,157.897 389.5,162.5C 386.946,158.204 384.946,153.537 383.5,148.5C 384.779,146.854 386.445,145.687 388.5,145C 386.559,144.257 384.726,144.424 383,145.5C 382.502,142.518 382.335,139.518 382.5,136.5C 383.214,132.067 385.214,128.4 388.5,125.5 Z"/></g>
<g><path style="opacity:1" fill="#f1f0ec" d="M 413.5,125.5 C 417.29,130.087 419.79,135.42 421,141.5C 421.499,147.157 421.666,152.824 421.5,158.5C 418.001,158.259 417.668,159.092 420.5,161C 420.167,161.167 419.833,161.333 419.5,161.5C 418.369,160.249 417.036,159.249 415.5,158.5C 414.833,158.667 414.167,158.833 413.5,159C 414.451,159.718 414.617,160.551 414,161.5C 412.809,159.153 410.976,158.32 408.5,159C 409.451,159.718 409.617,160.551 409,161.5C 407.809,159.153 405.976,158.32 403.5,159C 404.451,159.718 404.617,160.551 404,161.5C 403.092,159.561 401.592,158.561 399.5,158.5C 400.167,157.167 400.833,155.833 401.5,154.5C 405.503,144.822 409.503,135.155 413.5,125.5 Z"/></g>
<g><path style="opacity:1" fill="#6f6f6e" d="M 408.5,121.5 C 410.898,121.259 412.898,121.926 414.5,123.5C 416.5,125.671 418.334,128.004 420,130.5C 424.007,139.595 425.507,148.928 424.5,158.5C 423.5,158.5 422.5,158.5 421.5,158.5C 421.666,152.824 421.499,147.157 421,141.5C 419.79,135.42 417.29,130.087 413.5,125.5C 412.016,123.926 410.349,122.593 408.5,121.5 Z"/></g>
<g><path style="opacity:1" fill="#542517" d="M 400.5,151.5 C 400.5,152.833 400.5,154.167 400.5,155.5C 399.5,155.5 398.5,155.5 397.5,155.5C 397.5,156.5 397.5,157.5 397.5,158.5C 396.833,158.5 396.167,158.5 395.5,158.5C 393.954,156.118 393.287,153.451 393.5,150.5C 394.201,146.713 394.868,142.88 395.5,139C 395.05,137.715 394.383,136.548 393.5,135.5C 396.5,127.5 399.5,127.5 402.5,135.5C 401.855,136.646 401.022,137.646 400,138.5C 399.585,142.848 399.751,147.181 400.5,151.5 Z"/></g>
<g><path style="opacity:0.994" fill="#2d4b4f" d="M 438.5,131.5 C 448.5,131.5 458.5,131.5 468.5,131.5C 466.204,133.401 464.371,135.734 463,138.5C 460.514,147.775 458.348,157.109 456.5,166.5C 451.3,154.434 445.3,142.767 438.5,131.5 Z"/></g>
<g><path style="opacity:1" fill="#1b1f21" d="M 480.5,149.5 C 477.108,149.717 474.275,151.051 472,153.5C 471.269,161.202 471.436,168.869 472.5,176.5C 467.683,176.709 463.016,176.709 458.5,176.5C 458.041,173.123 457.374,169.789 456.5,166.5C 458.348,157.109 460.514,147.775 463,138.5C 464.371,135.734 466.204,133.401 468.5,131.5C 476.214,129.873 480.881,133.04 482.5,141C 481.594,143.791 480.927,146.624 480.5,149.5 Z"/></g>
<g><path style="opacity:1" fill="#d6d6d6" d="M 435.5,129.5 C 436.778,129.782 437.778,130.449 438.5,131.5C 445.3,142.767 451.3,154.434 456.5,166.5C 457.374,169.789 458.041,173.123 458.5,176.5C 458.5,178.833 458.5,181.167 458.5,183.5C 457.974,185.23 456.974,186.564 455.5,187.5C 452.498,189.053 449.332,190.386 446,191.5C 444.97,191.836 444.47,192.503 444.5,193.5C 443.167,193.5 441.833,193.5 440.5,193.5C 440.5,192.833 440.5,192.167 440.5,191.5C 439.498,189.323 439.498,187.323 440.5,185.5C 445.305,184.868 448.472,182.201 450,177.5C 450.667,173.167 450.667,168.833 450,164.5C 446.799,152.105 441.966,140.439 435.5,129.5 Z"/></g>
<g><path style="opacity:1" fill="#d7d8d6" d="M 382.5,136.5 C 382.335,139.518 382.502,142.518 383,145.5C 384.726,144.424 386.559,144.257 388.5,145C 386.445,145.687 384.779,146.854 383.5,148.5C 384.946,153.537 386.946,158.204 389.5,162.5C 388.945,165.096 387.945,167.429 386.5,169.5C 385.594,168.035 384.261,167.035 382.5,166.5C 380.001,156.342 380.001,146.342 382.5,136.5 Z"/></g>
<g><path style="opacity:1" fill="#d9d9d9" d="M 243.5,150.5 C 243.5,150.833 243.5,151.167 243.5,151.5C 237.487,171.68 224.32,184.68 204,190.5C 203.329,189.748 202.496,189.414 201.5,189.5C 196.286,178.071 190.786,166.737 185,155.5C 184.28,153.888 184.446,152.388 185.5,151C 204.83,150.5 224.164,150.333 243.5,150.5 Z"/></g>
<g><path style="opacity:1" fill="#d1d0d0" d="M 243.5,151.5 C 250.21,163.918 256.71,176.584 263,189.5C 263.579,190.928 263.412,192.262 262.5,193.5C 242.424,193.821 222.424,193.487 202.5,192.5C 202.443,191.391 202.11,190.391 201.5,189.5C 202.496,189.414 203.329,189.748 204,190.5C 224.32,184.68 237.487,171.68 243.5,151.5 Z"/></g>
<g><path style="opacity:1" fill="#a99a7d" d="M 400.5,151.5 C 401.404,152.209 401.737,153.209 401.5,154.5C 400.833,155.833 400.167,157.167 399.5,158.5C 399.058,159.231 398.891,160.231 399,161.5C 397.961,160.756 397.461,159.756 397.5,158.5C 397.5,157.5 397.5,156.5 397.5,155.5C 398.5,155.5 399.5,155.5 400.5,155.5C 400.5,154.167 400.5,152.833 400.5,151.5 Z"/></g>
<g><path style="opacity:1" fill="#c8d22b" d="M 395.5,158.5 C 396.167,158.5 396.833,158.5 397.5,158.5C 397.461,159.756 397.961,160.756 399,161.5C 398.891,160.231 399.058,159.231 399.5,158.5C 401.592,158.561 403.092,159.561 404,161.5C 404.617,160.551 404.451,159.718 403.5,159C 405.976,158.32 407.809,159.153 409,161.5C 409.617,160.551 409.451,159.718 408.5,159C 410.976,158.32 412.809,159.153 414,161.5C 414.617,160.551 414.451,159.718 413.5,159C 414.167,158.833 414.833,158.667 415.5,158.5C 417.036,159.249 418.369,160.249 419.5,161.5C 419.833,161.333 420.167,161.167 420.5,161C 417.668,159.092 418.001,158.259 421.5,158.5C 422.5,158.5 423.5,158.5 424.5,158.5C 426.099,158.232 427.432,158.566 428.5,159.5C 427.87,167.181 427.203,174.848 426.5,182.5C 412.088,182.816 397.755,182.482 383.5,181.5C 384.038,179.883 384.371,178.216 384.5,176.5C 385.738,174.786 386.405,172.786 386.5,170.5C 386.5,170.167 386.5,169.833 386.5,169.5C 387.945,167.429 388.945,165.096 389.5,162.5C 390.018,157.897 391.351,157.563 393.5,161.5C 394.506,161.062 394.506,160.396 393.5,159.5C 393.957,158.702 394.624,158.369 395.5,158.5 Z"/></g>
<g><path style="opacity:0.998" fill="#a4a2a0" d="M 325.5,176.5 C 326.449,179.208 326.449,181.874 325.5,184.5C 324.011,181.496 322.678,178.496 321.5,175.5C 319.86,169.608 318.86,163.608 318.5,157.5C 320.124,157.36 321.29,158.027 322,159.5C 323.617,165.086 324.784,170.753 325.5,176.5 Z"/></g>
<g><path style="opacity:1" fill="#f0efeb" d="M 391.5,165.5 C 402.833,165.5 414.167,165.5 425.5,165.5C 425.249,170.507 424.916,175.507 424.5,180.5C 412.149,180.832 399.815,180.499 387.5,179.5C 389.147,174.91 390.48,170.244 391.5,165.5 Z"/></g>
<g><path style="opacity:1" fill="#fc4434" d="M 419.5,167.5 C 420.5,167.5 421.5,167.5 422.5,167.5C 422.5,168.5 422.5,169.5 422.5,170.5C 421.5,170.5 420.5,170.5 419.5,170.5C 419.5,169.5 419.5,168.5 419.5,167.5 Z"/></g>
<g><path style="opacity:1" fill="#b6b924" d="M 428.5,159.5 C 431.291,165.269 433.791,171.269 436,177.5C 436.64,179.265 436.473,180.932 435.5,182.5C 432.5,182.5 429.5,182.5 426.5,182.5C 427.203,174.848 427.87,167.181 428.5,159.5 Z"/></g>
<g><path style="opacity:1" fill="#d9d7d5" d="M 386.5,170.5 C 386.405,172.786 385.738,174.786 384.5,176.5C 381.5,175.167 378.5,175.167 375.5,176.5C 375.906,168.49 379.573,166.49 386.5,170.5 Z"/></g>
<g><path style="opacity:1" fill="#fd5846" d="M 400.5,171.5 C 401.833,171.5 403.167,171.5 404.5,171.5C 404.778,173.346 404.111,174.68 402.5,175.5C 400.889,174.68 400.222,173.346 400.5,171.5 Z"/></g>
<g><path style="opacity:0.992" fill="#f6a185" d="M 321.5,175.5 C 322.678,178.496 324.011,181.496 325.5,184.5C 326.449,181.874 326.449,179.208 325.5,176.5C 328.877,176.959 332.211,177.626 335.5,178.5C 336.736,180.043 338.402,181.043 340.5,181.5C 341.949,183.912 341.616,185.912 339.5,187.5C 338.234,188.09 336.901,188.59 335.5,189C 326.84,189.5 318.173,189.666 309.5,189.5C 307.981,183.905 309.981,179.905 315.5,177.5C 317.411,176.523 319.411,175.857 321.5,175.5 Z"/></g>
<g><path style="opacity:1" fill="#fd4d3b" d="M 395.5,175.5 C 396.833,175.5 398.167,175.5 399.5,175.5C 399.5,176.5 399.5,177.5 399.5,178.5C 398.167,178.5 396.833,178.5 395.5,178.5C 395.5,177.5 395.5,176.5 395.5,175.5 Z"/></g>
<g><path style="opacity:1" fill="#484a4b" d="M 480.5,149.5 C 482.97,151.082 484.47,153.415 485,156.5C 485.126,163.274 485.959,169.94 487.5,176.5C 491.27,178.803 494.77,181.469 498,184.5C 498.497,187.146 498.664,189.813 498.5,192.5C 486.58,193.479 474.58,193.812 462.5,193.5C 462.674,191.139 463.007,188.806 463.5,186.5C 461.336,186.279 459.67,185.279 458.5,183.5C 458.5,181.167 458.5,178.833 458.5,176.5C 463.016,176.709 467.683,176.709 472.5,176.5C 471.436,168.869 471.269,161.202 472,153.5C 474.275,151.051 477.108,149.717 480.5,149.5 Z"/></g>
<g><path style="opacity:1" fill="#713a25" d="M 383.5,181.5 C 397.755,182.482 412.088,182.816 426.5,182.5C 429.5,182.5 432.5,182.5 435.5,182.5C 437.415,182.216 439.081,182.549 440.5,183.5C 420.497,183.333 400.497,183.5 380.5,184C 379.167,186.667 379.167,189.333 380.5,192C 400.499,192.167 420.499,192 440.5,191.5C 440.5,192.167 440.5,192.833 440.5,193.5C 429.752,193.191 419.085,193.524 408.5,194.5C 398.781,194.782 389.114,194.449 379.5,193.5C 377.568,190.823 377.068,187.823 378,184.5C 379.264,182.393 381.097,181.393 383.5,181.5 Z"/></g>
<g><path style="opacity:1" fill="#ea997f" d="M 384.5,176.5 C 384.371,178.216 384.038,179.883 383.5,181.5C 381.097,181.393 379.264,182.393 378,184.5C 377.068,187.823 377.568,190.823 379.5,193.5C 373.167,193.5 366.833,193.5 360.5,193.5C 360.511,191.983 361.177,190.816 362.5,190C 360.942,189.79 359.609,189.29 358.5,188.5C 363.291,184.932 368.291,181.598 373.5,178.5C 374.5,178.167 375.167,177.5 375.5,176.5C 378.5,175.167 381.5,175.167 384.5,176.5 Z"/></g>
<g><path style="opacity:1" fill="#1e2223" d="M 458.5,183.5 C 459.67,185.279 461.336,186.279 463.5,186.5C 463.007,188.806 462.674,191.139 462.5,193.5C 460.167,193.5 457.833,193.5 455.5,193.5C 455.5,191.5 455.5,189.5 455.5,187.5C 456.974,186.564 457.974,185.23 458.5,183.5 Z"/></g>
<g><path style="opacity:1" fill="#ded6bc" d="M 440.5,183.5 C 440.5,184.167 440.5,184.833 440.5,185.5C 439.498,187.323 439.498,189.323 440.5,191.5C 420.499,192 400.499,192.167 380.5,192C 379.167,189.333 379.167,186.667 380.5,184C 400.497,183.5 420.497,183.333 440.5,183.5 Z"/></g>
<g><path style="opacity:1" fill="#354e50" d="M 455.5,187.5 C 455.5,189.5 455.5,191.5 455.5,193.5C 451.833,193.5 448.167,193.5 444.5,193.5C 444.47,192.503 444.97,191.836 446,191.5C 449.332,190.386 452.498,189.053 455.5,187.5 Z"/></g>
<g><path style="opacity:1" fill="#e4dac0" d="M 339.5,187.5 C 345.645,188.49 351.978,188.823 358.5,188.5C 359.609,189.29 360.942,189.79 362.5,190C 361.177,190.816 360.511,191.983 360.5,193.5C 342.5,193.5 324.5,193.5 306.5,193.5C 303.452,191.881 300.119,190.881 296.5,190.5C 300.798,189.8 305.131,189.467 309.5,189.5C 318.173,189.666 326.84,189.5 335.5,189C 336.901,188.59 338.234,188.09 339.5,187.5 Z"/></g>
<g><path style="opacity:0.997" fill="#9c9795" d="M 243.5,151.5 C 243.5,151.167 243.5,150.833 243.5,150.5C 244.496,150.414 245.329,150.748 246,151.5C 252.439,164.044 258.606,176.711 264.5,189.5C 275.146,190.499 285.813,190.832 296.5,190.5C 300.119,190.881 303.452,191.881 306.5,193.5C 291.833,193.5 277.167,193.5 262.5,193.5C 263.412,192.262 263.579,190.928 263,189.5C 256.71,176.584 250.21,163.918 243.5,151.5 Z"/></g>
<g><path style="opacity:0.978" fill="#ae7f52" d="M 202.5,192.5 C 222.424,193.487 242.424,193.821 262.5,193.5C 277.167,193.5 291.833,193.5 306.5,193.5C 324.5,193.5 342.5,193.5 360.5,193.5C 366.833,193.5 373.167,193.5 379.5,193.5C 389.114,194.449 398.781,194.782 408.5,194.5C 409.768,196.67 409.768,198.837 408.5,201C 411.036,201.186 413.369,201.686 415.5,202.5C 415.167,202.5 414.833,202.5 414.5,202.5C 410.5,202.5 406.5,202.5 402.5,202.5C 398.5,202.5 394.5,202.5 390.5,202.5C 384.167,202.5 377.833,202.5 371.5,202.5C 361.5,202.5 351.5,202.5 341.5,202.5C 324.5,202.5 307.5,202.5 290.5,202.5C 290.167,202.5 289.833,202.5 289.5,202.5C 246.5,201.167 203.5,201.167 160.5,202.5C 155.821,202.666 151.155,202.499 146.5,202C 143.701,198.661 144.034,195.661 147.5,193C 165.83,192.5 184.164,192.333 202.5,192.5 Z"/></g>
<g><path style="opacity:0.988" fill="#976a46" d="M 498.5,192.5 C 505.947,192.071 513.281,192.571 520.5,194C 523.07,196.915 522.737,199.581 519.5,202C 516.854,202.497 514.187,202.664 511.5,202.5C 507.167,202.5 502.833,202.5 498.5,202.5C 490.833,202.5 483.167,202.5 475.5,202.5C 455.5,202.5 435.5,202.5 415.5,202.5C 413.369,201.686 411.036,201.186 408.5,201C 409.768,198.837 409.768,196.67 408.5,194.5C 419.085,193.524 429.752,193.191 440.5,193.5C 441.833,193.5 443.167,193.5 444.5,193.5C 448.167,193.5 451.833,193.5 455.5,193.5C 457.833,193.5 460.167,193.5 462.5,193.5C 474.58,193.812 486.58,193.479 498.5,192.5 Z"/></g>
<g><path style="opacity:0.055" fill="#2d2622" d="M 112.5,201.5 C 113.833,202.167 113.833,202.167 112.5,201.5 Z"/></g>
<g><path style="opacity:0.993" fill="#825c43" d="M 289.5,202.5 C 267.5,202.5 245.5,202.5 223.5,202.5C 202.833,202.5 182.167,202.5 161.5,202.5C 161.5,207.167 161.5,211.833 161.5,216.5C 182.167,216.5 202.833,216.5 223.5,216.5C 223.5,216.833 223.5,217.167 223.5,217.5C 223.5,257.833 223.5,298.167 223.5,338.5C 203.831,338.667 184.164,338.5 164.5,338C 161.179,336.188 159.845,333.355 160.5,329.5C 160.5,287.167 160.5,244.833 160.5,202.5C 203.5,201.167 246.5,201.167 289.5,202.5 Z"/></g>
<g><path style="opacity:1" fill="#74533b" d="M 223.5,202.5 C 223.5,207.167 223.5,211.833 223.5,216.5C 202.833,216.5 182.167,216.5 161.5,216.5C 161.5,211.833 161.5,207.167 161.5,202.5C 182.167,202.5 202.833,202.5 223.5,202.5 Z"/></g>
<g><path style="opacity:1" fill="#bdbfbe" d="M 371.5,202.5 C 377.833,202.5 384.167,202.5 390.5,202.5C 390.824,209.354 390.491,216.021 389.5,222.5C 389.5,217.833 389.5,213.167 389.5,208.5C 383.085,208.249 376.751,208.249 370.5,208.5C 370.67,207.178 370.337,206.011 369.5,205C 370.381,204.292 371.047,203.458 371.5,202.5 Z"/></g>
<g><path style="opacity:1" fill="#e2e1e1" d="M 402.5,202.5 C 406.5,202.5 410.5,202.5 414.5,202.5C 411.591,208.253 410.925,214.253 412.5,220.5C 409.232,221.487 405.898,221.82 402.5,221.5C 402.5,215.167 402.5,208.833 402.5,202.5 Z"/></g>
<g><path style="opacity:1" fill="#1b2021" d="M 414.5,202.5 C 414.833,202.5 415.167,202.5 415.5,202.5C 435.5,202.5 455.5,202.5 475.5,202.5C 476.619,219.001 478.953,235.334 482.5,251.5C 482.16,257.336 479.16,260.836 473.5,262C 456.503,262.5 439.503,262.667 422.5,262.5C 420.421,262.029 418.421,261.363 416.5,260.5C 414.156,259.653 412.656,257.986 412,255.5C 410.738,251.091 411.572,247.257 414.5,244C 410.514,243.501 406.514,243.334 402.5,243.5C 402.5,236.167 402.5,228.833 402.5,221.5C 405.898,221.82 409.232,221.487 412.5,220.5C 410.925,214.253 411.591,208.253 414.5,202.5 Z"/></g>
<g><path style="opacity:0.968" fill="#825c43" d="M 498.5,202.5 C 502.833,202.5 507.167,202.5 511.5,202.5C 511.5,244.833 511.5,287.167 511.5,329.5C 513.105,335.486 510.938,338.486 505,338.5C 499.062,338.486 496.895,335.486 498.5,329.5C 498.5,287.167 498.5,244.833 498.5,202.5 Z"/></g>
<g><path style="opacity:1" fill="#634533" d="M 223.5,202.5 C 245.5,202.5 267.5,202.5 289.5,202.5C 289.833,202.5 290.167,202.5 290.5,202.5C 290.5,203.5 290.5,204.5 290.5,205.5C 289.668,223.996 289.168,242.662 289,261.5C 272,249.833 255,238.167 238,226.5C 237.174,260.875 237.34,295.208 238.5,329.5C 239.025,330.192 239.692,330.692 240.5,331C 256.833,331.333 273.167,331.667 289.5,332C 272.5,332.667 255.5,332.667 238.5,332C 237.667,331.167 236.833,330.333 236,329.5C 235.833,294.495 235.333,259.495 234.5,224.5C 231.066,221.719 227.399,219.386 223.5,217.5C 223.5,217.167 223.5,216.833 223.5,216.5C 223.5,211.833 223.5,207.167 223.5,202.5 Z"/></g>
<g><path style="opacity:1" fill="#e2e3e4" d="M 445.5,208.5 C 445.666,215.508 445.5,222.508 445,229.5C 444.055,234.767 441.221,238.434 436.5,240.5C 434.473,240.662 432.473,240.495 430.5,240C 426.137,230.656 424.303,220.822 425,210.5C 431.586,207.398 438.419,206.732 445.5,208.5 Z"/></g>
<g><path style="opacity:1" fill="#2c4b4f" d="M 445.5,208.5 C 449.215,208.423 452.881,208.756 456.5,209.5C 457.273,219.911 458.606,230.245 460.5,240.5C 452.5,240.5 444.5,240.5 436.5,240.5C 441.221,238.434 444.055,234.767 445,229.5C 445.5,222.508 445.666,215.508 445.5,208.5 Z"/></g>
<g><path style="opacity:0.977" fill="#815b42" d="M 390.5,202.5 C 394.5,202.5 398.5,202.5 402.5,202.5C 402.5,208.833 402.5,215.167 402.5,221.5C 402.5,228.833 402.5,236.167 402.5,243.5C 402.177,250.022 402.51,256.355 403.5,262.5C 403.5,277.833 403.5,293.167 403.5,308.5C 402.167,312.5 402.167,316.5 403.5,320.5C 403.5,323.5 403.5,326.5 403.5,329.5C 404.722,335.422 402.389,338.422 396.5,338.5C 390.611,338.422 388.278,335.422 389.5,329.5C 389.5,326.5 389.5,323.5 389.5,320.5C 390.833,316.5 390.833,312.5 389.5,308.5C 389.5,293.167 389.5,277.833 389.5,262.5C 390.821,249.402 390.821,236.402 389.5,223.5C 389.5,223.167 389.5,222.833 389.5,222.5C 390.491,216.021 390.824,209.354 390.5,202.5 Z"/></g>
<g><path style="opacity:1" fill="#e3e3e4" d="M 389.5,222.5 C 389.5,222.833 389.5,223.167 389.5,223.5C 380.5,226.5 374.5,232.5 371.5,241.5C 368.308,241.595 365.308,240.929 362.5,239.5C 360.608,238.298 358.774,236.965 357,235.5C 354.901,228.402 350.401,223.568 343.5,221C 346.695,220.819 349.695,220.319 352.5,219.5C 358.523,219.498 364.523,219.165 370.5,218.5C 370.5,215.167 370.5,211.833 370.5,208.5C 376.751,208.249 383.085,208.249 389.5,208.5C 389.5,213.167 389.5,217.833 389.5,222.5 Z"/></g>
<g><path style="opacity:1" fill="#191817" d="M 341.5,202.5 C 351.5,202.5 361.5,202.5 371.5,202.5C 371.047,203.458 370.381,204.292 369.5,205C 370.337,206.011 370.67,207.178 370.5,208.5C 364.755,208.211 359.088,208.711 353.5,210C 352.549,213.057 352.216,216.223 352.5,219.5C 349.695,220.319 346.695,220.819 343.5,221C 350.401,223.568 354.901,228.402 357,235.5C 358.774,236.965 360.608,238.298 362.5,239.5C 358.018,240.326 353.351,240.826 348.5,241C 347.069,241.465 345.903,242.299 345,243.5C 344.766,249.833 344.932,256.166 345.5,262.5C 345.792,275.202 345.292,287.869 344,300.5C 343.808,302.577 343.308,304.577 342.5,306.5C 341.583,307.127 340.583,307.461 339.5,307.5C 335.03,306.514 330.363,306.181 325.5,306.5C 324.178,306.67 323.011,306.337 322,305.5C 321.333,284.5 321.333,263.5 322,242.5C 322.762,231.96 328.095,224.96 338,221.5C 337.825,214.846 338.992,208.512 341.5,202.5 Z"/></g>
<g><path style="opacity:1" fill="#232321" d="M 389.5,223.5 C 390.821,236.402 390.821,249.402 389.5,262.5C 387.401,277.166 384.568,291.832 381,306.5C 380.005,307.066 379.172,307.733 378.5,308.5C 373.469,307.217 368.469,307.217 363.5,308.5C 362.685,307.163 361.518,306.163 360,305.5C 361.083,291.003 363.25,276.67 366.5,262.5C 367.532,255.338 369.199,248.338 371.5,241.5C 374.5,232.5 380.5,226.5 389.5,223.5 Z"/></g>
<g><path style="opacity:1" fill="#704f3a" d="M 290.5,205.5 C 290.5,246.833 290.5,288.167 290.5,329.5C 291.155,333.355 289.821,336.188 286.5,338C 265.503,338.5 244.503,338.667 223.5,338.5C 223.5,298.167 223.5,257.833 223.5,217.5C 227.399,219.386 231.066,221.719 234.5,224.5C 235.333,259.495 235.833,294.495 236,329.5C 236.833,330.333 237.667,331.167 238.5,332C 255.5,332.667 272.5,332.667 289.5,332C 273.167,331.667 256.833,331.333 240.5,331C 239.692,330.692 239.025,330.192 238.5,329.5C 237.34,295.208 237.174,260.875 238,226.5C 255,238.167 272,249.833 289,261.5C 289.168,242.662 289.668,223.996 290.5,205.5 Z"/></g>
<g><path style="opacity:0.97" fill="#2b4a4e" d="M 362.5,239.5 C 365.308,240.929 368.308,241.595 371.5,241.5C 369.199,248.338 367.532,255.338 366.5,262.5C 359.5,262.5 352.5,262.5 345.5,262.5C 344.932,256.166 344.766,249.833 345,243.5C 345.903,242.299 347.069,241.465 348.5,241C 353.351,240.826 358.018,240.326 362.5,239.5 Z"/></g>
<g><path style="opacity:0.974" fill="#2e4a4e" d="M 402.5,243.5 C 406.514,243.334 410.514,243.501 414.5,244C 411.572,247.257 410.738,251.091 412,255.5C 412.656,257.986 414.156,259.653 416.5,260.5C 414.167,261.167 411.833,261.833 409.5,262.5C 407.5,262.5 405.5,262.5 403.5,262.5C 402.51,256.355 402.177,250.022 402.5,243.5 Z"/></g>
<g><path style="opacity:0.966" fill="#323030" d="M 416.5,260.5 C 418.421,261.363 420.421,262.029 422.5,262.5C 422.5,263.5 422.5,264.5 422.5,265.5C 429.178,265.119 435.844,264.952 442.5,265C 448.329,265.151 450.829,267.984 450,273.5C 445.031,273.958 440.531,272.458 436.5,269C 431.845,268.501 427.179,268.334 422.5,268.5C 422.5,281.833 422.5,295.167 422.5,308.5C 438.17,308.333 453.837,308.5 469.5,309C 470.479,315.744 470.812,322.578 470.5,329.5C 468.931,334.573 465.598,336.406 460.5,335C 458.536,333.549 457.203,331.716 456.5,329.5C 456.212,323.953 458.879,321.12 464.5,321C 449.504,320.5 434.504,320.333 419.5,320.5C 419.5,323.5 419.5,326.5 419.5,329.5C 417.953,334.542 414.62,336.375 409.5,335C 407.561,333.568 406.228,331.735 405.5,329.5C 405.26,323.907 407.927,321.073 413.5,321C 410.183,320.502 406.85,320.335 403.5,320.5C 402.167,316.5 402.167,312.5 403.5,308.5C 405.5,308.5 407.5,308.5 409.5,308.5C 409.5,293.167 409.5,277.833 409.5,262.5C 411.833,261.833 414.167,261.167 416.5,260.5 Z M 456.5,329.5 C 444.167,329.5 431.833,329.5 419.5,329.5C 419.5,326.5 419.5,323.5 419.5,320.5C 434.504,320.333 449.504,320.5 464.5,321C 458.879,321.12 456.212,323.953 456.5,329.5 Z"/></g>
<g><path style="opacity:0.946" fill="#393737" d="M 378.5,308.5 C 382.167,308.5 385.833,308.5 389.5,308.5C 390.833,312.5 390.833,316.5 389.5,320.5C 386.5,320.5 383.5,320.5 380.5,320.5C 379.991,317.808 378.991,315.308 377.5,313C 372.78,312.779 368.113,312.279 363.5,311.5C 362.817,311.863 362.15,312.196 361.5,312.5C 360.778,312.918 360.278,313.584 360,314.5C 359.51,313.207 359.343,311.873 359.5,310.5C 360.183,308.824 361.517,308.157 363.5,308.5C 368.469,307.217 373.469,307.217 378.5,308.5 Z"/></g>
<g><path style="opacity:1" fill="#3f4144" d="M 325.5,306.5 C 330.363,306.181 335.03,306.514 339.5,307.5C 338.833,307.5 338.5,307.833 338.5,308.5C 338.5,309.833 338.5,311.167 338.5,312.5C 333.72,314.314 329.387,313.647 325.5,310.5C 325.5,309.167 325.5,307.833 325.5,306.5 Z"/></g>
<g><path style="opacity:1" fill="#2c2323" d="M 359.5,310.5 C 359.343,311.873 359.51,313.207 360,314.5C 360.278,313.584 360.778,312.918 361.5,312.5C 367.243,321.669 364.91,327.836 354.5,331C 346.06,331.902 337.727,331.402 329.5,329.5C 329.472,327.418 330.139,325.584 331.5,324C 336.339,324.22 341.006,324.053 345.5,323.5C 348.598,321.108 351.931,318.942 355.5,317C 357.628,315.208 358.961,313.042 359.5,310.5 Z"/></g>
<g><path style="opacity:0.999" fill="#211b1b" d="M 338.5,308.5 C 341.041,313.483 343.374,318.483 345.5,323.5C 341.006,324.053 336.339,324.22 331.5,324C 330.139,325.584 329.472,327.418 329.5,329.5C 337.727,331.402 346.06,331.902 354.5,331C 364.91,327.836 367.243,321.669 361.5,312.5C 362.15,312.196 362.817,311.863 363.5,311.5C 368.113,312.279 372.78,312.779 377.5,313C 378.991,315.308 379.991,317.808 380.5,320.5C 381.424,323.553 381.424,326.553 380.5,329.5C 380.682,331.591 380.348,333.591 379.5,335.5C 372.653,336.779 365.82,336.779 359,335.5C 347.899,339.152 336.899,338.819 326,334.5C 319.327,336.88 312.494,338.047 305.5,338C 300.974,337.547 296.641,336.38 292.5,334.5C 291.548,332.955 291.215,331.288 291.5,329.5C 292.837,322.586 296.671,320.92 303,324.5C 311.916,321.966 319.416,317.3 325.5,310.5C 329.387,313.647 333.72,314.314 338.5,312.5C 338.5,311.167 338.5,309.833 338.5,308.5 Z"/></g>
<g><path style="opacity:0.196" fill="#b3b2b2" d="M 160.5,329.5 C 159.845,333.355 161.179,336.188 164.5,338C 184.164,338.5 203.831,338.667 223.5,338.5C 244.503,338.667 265.503,338.5 286.5,338C 289.821,336.188 291.155,333.355 290.5,329.5C 290.833,329.5 291.167,329.5 291.5,329.5C 291.215,331.288 291.548,332.955 292.5,334.5C 296.641,336.38 300.974,337.547 305.5,338C 312.494,338.047 319.327,336.88 326,334.5C 336.899,338.819 347.899,339.152 359,335.5C 365.82,336.779 372.653,336.779 379.5,335.5C 380.348,333.591 380.682,331.591 380.5,329.5C 383.5,329.5 386.5,329.5 389.5,329.5C 388.278,335.422 390.611,338.422 396.5,338.5C 402.389,338.422 404.722,335.422 403.5,329.5C 404.167,329.5 404.833,329.5 405.5,329.5C 406.228,331.735 407.561,333.568 409.5,335C 414.62,336.375 417.953,334.542 419.5,329.5C 431.833,329.5 444.167,329.5 456.5,329.5C 457.203,331.716 458.536,333.549 460.5,335C 465.598,336.406 468.931,334.573 470.5,329.5C 479.833,329.5 489.167,329.5 498.5,329.5C 496.895,335.486 499.062,338.486 505,338.5C 510.938,338.486 513.105,335.486 511.5,329.5C 523.838,329.333 536.171,329.5 548.5,330C 550.323,330.997 551.99,332.164 553.5,333.5C 553.5,336.167 553.5,338.833 553.5,341.5C 551.887,343.27 549.887,344.436 547.5,345C 522.167,345.333 496.833,345.667 471.5,346C 467.5,349.333 467.5,352.667 471.5,356C 480.091,357.244 488.758,357.911 497.5,358C 502.754,362.592 502.754,367.092 497.5,371.5C 362.5,371.5 227.5,371.5 92.5,371.5C 87.2464,367.092 87.2464,362.592 92.5,358C 99.9115,357.892 107.245,357.225 114.5,356C 118.5,352.667 118.5,349.333 114.5,346C 78.5,345.667 42.5,345.333 6.5,345C 3.86077,344.347 1.52743,343.18 -0.5,341.5C -0.5,338.833 -0.5,336.167 -0.5,333.5C 0.639972,332.199 1.97331,331.032 3.5,330C 55.8323,329.5 108.166,329.333 160.5,329.5 Z"/></g>
<g><path style="opacity:0.184" fill="#b4b2b1" d="M 76.5,371.5 C 74.1667,371.5 71.8333,371.5 69.5,371.5C 66.6451,368.408 65.8118,364.741 67,360.5C 73.6711,355.624 78.1711,357.124 80.5,365C 79.7807,367.617 78.4474,369.784 76.5,371.5 Z"/></g>
</svg>
