<?xml version="1.0" encoding="UTF-8"?>
<!DOCTYPE svg PUBLIC "-//W3C//DTD SVG 1.1//EN" "http://www.w3.org/Graphics/SVG/1.1/DTD/svg11.dtd">
<svg xmlns="http://www.w3.org/2000/svg" version="1.1" width="300px" height="276px" style="shape-rendering:geometricPrecision; text-rendering:geometricPrecision; image-rendering:optimizeQuality; fill-rule:evenodd; clip-rule:evenodd" xmlns:xlink="http://www.w3.org/1999/xlink">
<g><path style="opacity:0.964" fill="#e42854" d="M 66.5,-0.5 C 76.1667,-0.5 85.8333,-0.5 95.5,-0.5C 105.354,2.00777 115.02,5.3411 124.5,9.5C 123.242,13.0358 122.409,16.7025 122,20.5C 121.617,21.056 121.117,21.3893 120.5,21.5C 81.3571,5.7866 66.5238,18.7866 76,60.5C 77.3319,66.1568 78.4985,71.8234 79.5,77.5C 85.4191,100.001 95.0858,120.667 108.5,139.5C 111.515,144.178 115.181,148.178 119.5,151.5C 119.5,152.167 119.833,152.5 120.5,152.5C 121.843,156.351 124.177,159.517 127.5,162C 141.213,174.361 156.547,184.361 173.5,192C 175.74,192.977 178.073,193.477 180.5,193.5C 191.805,197.728 203.472,199.562 215.5,199C 221.964,197.87 225.797,194.036 227,187.5C 228.346,175.207 227.179,163.207 223.5,151.5C 228.112,150.617 231.946,148.283 235,144.5C 235.522,141.719 236.689,139.385 238.5,137.5C 246.143,155.402 249.643,174.069 249,193.5C 246.439,211.389 236.105,219.723 218,218.5C 204.82,218.246 192.32,215.246 180.5,209.5C 159.441,198.624 140.441,184.79 123.5,168C 122.552,167.517 121.552,167.351 120.5,167.5C 116.177,161.845 111.51,156.512 106.5,151.5C 106.539,148.911 105.539,146.911 103.5,145.5C 89.3395,127.202 77.1728,107.535 67,86.5C 66.3292,85.7476 65.4959,85.4142 64.5,85.5C 58.7104,71.963 54.2104,57.963 51,43.5C 47.9482,30.9511 49.2815,18.9511 55,7.5C 58.4821,4.16083 62.3155,1.49416 66.5,-0.5 Z M 223.5,151.5 C 227.179,163.207 228.346,175.207 227,187.5C 225.797,194.036 221.964,197.87 215.5,199C 203.472,199.562 191.805,197.728 180.5,193.5C 180.5,179.5 180.5,165.5 180.5,151.5C 194.833,151.5 209.167,151.5 223.5,151.5 Z"/></g>
<g><path style="opacity:0.965" fill="#05923d" d="M 180.5,50.5 C 179.207,56.4693 179.207,62.4693 180.5,68.5C 180.5,71.5 180.5,74.5 180.5,77.5C 171.564,75.5342 162.897,72.7009 154.5,69C 134.653,65.6716 121.486,73.5049 115,92.5C 113.893,98.2011 112.727,103.868 111.5,109.5C 113.903,109.607 115.736,108.607 117,106.5C 118.663,102.787 120.163,99.1204 121.5,95.5C 120.949,98.8067 120.616,102.14 120.5,105.5C 119.129,108.567 117.462,111.567 115.5,114.5C 118.008,115.588 120.008,114.922 121.5,112.5C 122.895,115.142 124.395,117.809 126,120.5C 130.478,124.635 134.978,128.635 139.5,132.5C 132.492,132.334 125.492,132.5 118.5,133C 114.626,134.431 111.293,136.597 108.5,139.5C 95.0858,120.667 85.4191,100.001 79.5,77.5C 93.504,77.6666 107.504,77.4999 121.5,77C 120.507,58.5765 120.174,40.0765 120.5,21.5C 121.117,21.3893 121.617,21.056 122,20.5C 122.409,16.7025 123.242,13.0358 124.5,9.5C 126.527,7.81957 128.861,6.65291 131.5,6C 144.5,5.33333 157.5,5.33333 170.5,6C 175.667,7.16667 178.833,10.3333 180,15.5C 180.5,27.1619 180.667,38.8286 180.5,50.5 Z"/></g>
<g><path style="opacity:0.927" fill="#e32954" d="M 180.5,50.5 C 188.868,58.9021 196.535,67.9021 203.5,77.5C 200.609,78.4025 197.609,78.7359 194.5,78.5C 192.097,78.552 189.764,78.2186 187.5,77.5C 185.518,74.1897 183.185,71.1897 180.5,68.5C 179.207,62.4693 179.207,56.4693 180.5,50.5 Z"/></g>
<g><path style="opacity:0.992" fill="#f7faf7" d="M 180.5,77.5 C 182.833,77.5 185.167,77.5 187.5,77.5C 189.764,78.2186 192.097,78.552 194.5,78.5C 191.446,86.2207 186.113,91.5541 178.5,94.5C 170.178,95.7563 161.845,95.7563 153.5,94.5C 151.167,93.1667 148.833,93.1667 146.5,94.5C 143.539,94.4642 141.206,95.4642 139.5,97.5C 137.81,97.1436 136.81,96.1436 136.5,94.5C 137.167,93.1667 137.833,91.8333 138.5,90.5C 145.109,86.187 152.443,83.8536 160.5,83.5C 144.243,73.9975 131.576,77.3308 122.5,93.5C 122.672,94.4916 122.338,95.1583 121.5,95.5C 120.163,99.1204 118.663,102.787 117,106.5C 115.736,108.607 113.903,109.607 111.5,109.5C 112.727,103.868 113.893,98.2011 115,92.5C 121.486,73.5049 134.653,65.6716 154.5,69C 162.897,72.7009 171.564,75.5342 180.5,77.5 Z"/></g>
<g><path style="opacity:0.956" fill="#0a923e" d="M 203.5,77.5 C 212.173,77.3336 220.84,77.5002 229.5,78C 234.626,80.0664 237.459,83.8997 238,89.5C 238.5,105.497 238.667,121.497 238.5,137.5C 236.689,139.385 235.522,141.719 235,144.5C 231.946,148.283 228.112,150.617 223.5,151.5C 209.167,151.5 194.833,151.5 180.5,151.5C 180.5,165.5 180.5,179.5 180.5,193.5C 178.073,193.477 175.74,192.977 173.5,192C 156.547,184.361 141.213,174.361 127.5,162C 124.177,159.517 121.843,156.351 120.5,152.5C 127.918,154.707 135.251,157.207 142.5,160C 160.64,163.633 174.14,157.467 183,141.5C 185.613,133.589 187.78,125.589 189.5,117.5C 186.386,118.091 183.886,119.758 182,122.5C 177.698,144.81 164.531,153.31 142.5,148C 140.445,147.313 138.779,146.146 137.5,144.5C 145.391,144.027 152.724,141.86 159.5,138C 161.495,135.843 162.828,133.343 163.5,130.5C 166.55,128.308 169.883,126.642 173.5,125.5C 169.867,134.26 164.201,141.427 156.5,147C 164.345,146.989 170.178,143.489 174,136.5C 176.468,130.927 178.635,125.26 180.5,119.5C 186.33,110.633 185.663,102.3 178.5,94.5C 186.113,91.5541 191.446,86.2207 194.5,78.5C 197.609,78.7359 200.609,78.4025 203.5,77.5 Z"/></g>
<g><path style="opacity:1" fill="#259b4d" d="M 138.5,90.5 C 137.292,89.7659 135.959,89.4326 134.5,89.5C 136.577,85.7764 139.577,82.9431 143.5,81C 136.647,80.9271 131.313,83.7605 127.5,89.5C 125.858,90.803 124.191,92.1363 122.5,93.5C 131.576,77.3308 144.243,73.9975 160.5,83.5C 152.443,83.8536 145.109,86.187 138.5,90.5 Z"/></g>
<g><path style="opacity:1" fill="#e9f2eb" d="M 134.5,89.5 C 132.167,89.5 129.833,89.5 127.5,89.5C 131.313,83.7605 136.647,80.9271 143.5,81C 139.577,82.9431 136.577,85.7764 134.5,89.5 Z"/></g>
<g><path style="opacity:0.911" fill="#08903c" d="M 64.5,85.5 C 65.4959,85.4142 66.3292,85.7476 67,86.5C 77.1728,107.535 89.3395,127.202 103.5,145.5C 102.27,147.297 101.604,149.297 101.5,151.5C 92.1607,151.666 82.8274,151.5 73.5,151C 68.5995,149.098 65.4329,145.598 64,140.5C 63.193,122.123 63.3597,103.79 64.5,85.5 Z"/></g>
<g><path style="opacity:1" fill="#58a870" d="M 146.5,94.5 C 148.833,93.1667 151.167,93.1667 153.5,94.5C 151.06,96.9222 148.726,96.9222 146.5,94.5 Z"/></g>
<g><path style="opacity:1" fill="#e22640" d="M 146.5,94.5 C 148.726,96.9222 151.06,96.9222 153.5,94.5C 161.845,95.7563 170.178,95.7563 178.5,94.5C 185.663,102.3 186.33,110.633 180.5,119.5C 178.142,121.529 175.808,123.529 173.5,125.5C 169.883,126.642 166.55,128.308 163.5,130.5C 159.385,131.095 155.385,132.095 151.5,133.5C 152.072,131.745 152.906,130.078 154,128.5C 159.291,123.03 164.958,118.03 171,113.5C 174.114,110.041 175.114,106.041 174,101.5C 173.5,99.6667 172.333,98.5 170.5,98C 164.796,96.685 159.796,98.0184 155.5,102C 152.066,106.19 148.4,110.19 144.5,114C 142.933,115.076 141.266,115.909 139.5,116.5C 138.833,116.167 138.167,115.833 137.5,115.5C 139.967,111.398 142.3,107.232 144.5,103C 143.35,100.684 141.683,98.8502 139.5,97.5C 141.206,95.4642 143.539,94.4642 146.5,94.5 Z"/></g>
<g><path style="opacity:1" fill="#1a8e3c" d="M 136.5,94.5 C 136.81,96.1436 137.81,97.1436 139.5,97.5C 141.683,98.8502 143.35,100.684 144.5,103C 142.3,107.232 139.967,111.398 137.5,115.5C 138.167,115.833 138.833,116.167 139.5,116.5C 141.266,115.909 142.933,115.076 144.5,114C 148.4,110.19 152.066,106.19 155.5,102C 159.796,98.0184 164.796,96.685 170.5,98C 172.333,98.5 173.5,99.6667 174,101.5C 175.114,106.041 174.114,110.041 171,113.5C 164.958,118.03 159.291,123.03 154,128.5C 152.906,130.078 152.072,131.745 151.5,133.5C 150.833,133.5 150.167,133.5 149.5,133.5C 144.209,127.039 138.709,120.705 133,114.5C 129.3,109.402 127.633,103.735 128,97.5C 130.196,94.8748 133.03,93.8748 136.5,94.5 Z"/></g>
<g><path style="opacity:1" fill="#e8f0e8" d="M 120.5,105.5 C 120.674,107.861 121.007,110.194 121.5,112.5C 120.008,114.922 118.008,115.588 115.5,114.5C 117.462,111.567 119.129,108.567 120.5,105.5 Z"/></g>
<g><path style="opacity:1" fill="#e1222e" d="M 127.5,89.5 C 129.833,89.5 132.167,89.5 134.5,89.5C 135.959,89.4326 137.292,89.7659 138.5,90.5C 137.833,91.8333 137.167,93.1667 136.5,94.5C 133.03,93.8748 130.196,94.8748 128,97.5C 127.633,103.735 129.3,109.402 133,114.5C 138.709,120.705 144.209,127.039 149.5,133.5C 146.061,133.747 142.728,133.414 139.5,132.5C 134.978,128.635 130.478,124.635 126,120.5C 124.395,117.809 122.895,115.142 121.5,112.5C 121.007,110.194 120.674,107.861 120.5,105.5C 120.616,102.14 120.949,98.8067 121.5,95.5C 122.338,95.1583 122.672,94.4916 122.5,93.5C 124.191,92.1363 125.858,90.803 127.5,89.5 Z"/></g>
<g><path style="opacity:1" fill="#f7faf7" d="M 120.5,152.5 C 119.833,152.5 119.5,152.167 119.5,151.5C 115.181,148.178 111.515,144.178 108.5,139.5C 111.293,136.597 114.626,134.431 118.5,133C 125.492,132.5 132.492,132.334 139.5,132.5C 142.728,133.414 146.061,133.747 149.5,133.5C 150.167,133.5 150.833,133.5 151.5,133.5C 155.385,132.095 159.385,131.095 163.5,130.5C 162.828,133.343 161.495,135.843 159.5,138C 152.724,141.86 145.391,144.027 137.5,144.5C 138.779,146.146 140.445,147.313 142.5,148C 164.531,153.31 177.698,144.81 182,122.5C 183.886,119.758 186.386,118.091 189.5,117.5C 187.78,125.589 185.613,133.589 183,141.5C 174.14,157.467 160.64,163.633 142.5,160C 135.251,157.207 127.918,154.707 120.5,152.5 Z"/></g>
<g><path style="opacity:1" fill="#f0f6f2" d="M 180.5,119.5 C 178.635,125.26 176.468,130.927 174,136.5C 170.178,143.489 164.345,146.989 156.5,147C 164.201,141.427 169.867,134.26 173.5,125.5C 175.808,123.529 178.142,121.529 180.5,119.5 Z"/></g>
<g><path style="opacity:0.988" fill="#e7e9e3" d="M 103.5,145.5 C 105.539,146.911 106.539,148.911 106.5,151.5C 104.833,151.5 103.167,151.5 101.5,151.5C 101.604,149.297 102.27,147.297 103.5,145.5 Z"/></g>
<g><path style="opacity:0.928" fill="#04913c" d="M 120.5,167.5 C 121.552,167.351 122.552,167.517 123.5,168C 140.441,184.79 159.441,198.624 180.5,209.5C 180.226,215.217 177.56,219.384 172.5,222C 157.407,222.967 142.407,222.633 127.5,221C 123.908,217.984 121.742,214.151 121,209.5C 120.5,195.504 120.333,181.504 120.5,167.5 Z"/></g>
<g><path style="opacity:0.722" fill="#00913b" d="M -0.5,236.5 C 4.5,236.5 9.5,236.5 14.5,236.5C 14.5,237.5 14.5,238.5 14.5,239.5C 13.5,239.5 12.5,239.5 11.5,239.5C 10.5375,243.796 10.3708,248.129 11,252.5C 15.059,248.944 18.559,244.944 21.5,240.5C 20.675,239.614 19.675,239.281 18.5,239.5C 18.5,238.5 18.5,237.5 18.5,236.5C 28.1667,236.5 37.8333,236.5 47.5,236.5C 47.5,237.5 47.5,238.5 47.5,239.5C 46.1779,239.33 45.0113,239.663 44,240.5C 43.5002,250.828 43.3335,261.161 43.5,271.5C 46.2492,271.726 48.9159,271.393 51.5,270.5C 53.582,267.848 54.9154,264.848 55.5,261.5C 56.325,260.614 57.325,260.281 58.5,260.5C 58.4971,265.527 58.1637,270.527 57.5,275.5C 43.5,275.5 29.5,275.5 15.5,275.5C 15.5743,273.589 16.5743,272.422 18.5,272C 15.8742,267.916 13.3742,263.75 11,259.5C 10.3333,263.167 10.3333,266.833 11,270.5C 11.7096,271.973 12.8762,272.64 14.5,272.5C 14.5,273.5 14.5,274.5 14.5,275.5C 9.5,275.5 4.5,275.5 -0.5,275.5C -0.5,274.5 -0.5,273.5 -0.5,272.5C 0.828557,267.376 1.49522,261.876 1.5,256C 1.49522,250.124 0.828557,244.624 -0.5,239.5C -0.5,238.5 -0.5,237.5 -0.5,236.5 Z M 28.5,239.5 C 30.4672,239.261 32.3005,239.594 34,240.5C 34.4998,251.161 34.6665,261.828 34.5,272.5C 32.5328,272.739 30.6995,272.406 29,271.5C 25.0406,265.082 21.2073,258.582 17.5,252C 21.003,247.665 24.6697,243.499 28.5,239.5 Z"/></g>
<g><path style="opacity:0.71" fill="#00913b" d="M 155.5,275.5 C 149.833,275.5 144.167,275.5 138.5,275.5C 138.626,273.8 139.293,272.3 140.5,271C 138.467,267.102 136.3,263.268 134,259.5C 133.333,263.167 133.333,266.833 134,270.5C 134.71,271.973 135.876,272.64 137.5,272.5C 137.5,273.5 137.5,274.5 137.5,275.5C 126.5,275.5 115.5,275.5 104.5,275.5C 104.694,273.088 106.027,272.088 108.5,272.5C 108.5,261.5 108.5,250.5 108.5,239.5C 106.208,239.244 104.041,239.577 102,240.5C 101.5,252.162 101.333,263.829 101.5,275.5C 100.5,275.5 99.5,275.5 98.5,275.5C 93.093,267.026 87.9263,258.36 83,249.5C 82.3333,256.833 82.3333,264.167 83,271.5C 84.0113,272.337 85.1779,272.67 86.5,272.5C 86.5,273.5 86.5,274.5 86.5,275.5C 77.1667,275.5 67.8333,275.5 58.5,275.5C 58.5,274.5 58.5,273.5 58.5,272.5C 59.8333,272.5 61.1667,272.5 62.5,272.5C 62.6665,261.828 62.4998,251.161 62,240.5C 60.9887,239.663 59.8221,239.33 58.5,239.5C 58.5,238.5 58.5,237.5 58.5,236.5C 67.8393,236.334 77.1726,236.5 86.5,237C 89.8742,242.916 93.3742,248.75 97,254.5C 97.6667,249.833 97.6667,245.167 97,240.5C 95.9887,239.663 94.8221,239.33 93.5,239.5C 93.5,238.5 93.5,237.5 93.5,236.5C 107.833,236.5 122.167,236.5 136.5,236.5C 133.766,241.464 132.933,246.797 134,252.5C 137.736,248.687 141.236,244.687 144.5,240.5C 143.092,239.757 141.759,238.923 140.5,238C 140.833,237.667 141.167,237.333 141.5,237C 145.486,236.501 149.486,236.334 153.5,236.5C 153.719,237.675 153.386,238.675 152.5,239.5C 147.792,243.207 143.792,247.54 140.5,252.5C 144.333,258.833 148.167,265.167 152,271.5C 153.011,272.337 154.178,272.67 155.5,272.5C 155.5,273.5 155.5,274.5 155.5,275.5 Z M 71.5,239.5 C 74.0444,239.104 76.2111,239.771 78,241.5C 78.6667,251.5 78.6667,261.5 78,271.5C 75.9592,272.423 73.7925,272.756 71.5,272.5C 71.5,261.5 71.5,250.5 71.5,239.5 Z M 118.5,239.5 C 120.5,239.5 122.5,239.5 124.5,239.5C 124.5,250.5 124.5,261.5 124.5,272.5C 122.208,272.756 120.041,272.423 118,271.5C 117.192,260.757 117.358,250.09 118.5,239.5 Z"/></g>
<g><path style="opacity:0.725" fill="#00913b" d="M 187.5,275.5 C 181.833,275.5 176.167,275.5 170.5,275.5C 170.694,273.088 172.027,272.088 174.5,272.5C 174.667,261.828 174.5,251.161 174,240.5C 172.989,239.663 171.822,239.33 170.5,239.5C 170.5,238.5 170.5,237.5 170.5,236.5C 176.842,236.334 183.175,236.5 189.5,237C 198.423,243.555 198.757,250.555 190.5,258C 188.444,258.311 186.444,258.811 184.5,259.5C 183.508,263.783 183.174,268.116 183.5,272.5C 185.973,272.088 187.306,273.088 187.5,275.5 Z M 183.5,240.5 C 186.042,242.248 187.376,244.748 187.5,248C 187.349,250.644 186.349,252.811 184.5,254.5C 183.507,249.88 183.173,245.214 183.5,240.5 Z"/></g>
<g><path style="opacity:0.761" fill="#00913b" d="M 299.5,236.5 C 299.5,237.5 299.5,238.5 299.5,239.5C 298.171,244.624 297.505,250.124 297.5,256C 297.505,261.876 298.171,267.376 299.5,272.5C 299.5,273.5 299.5,274.5 299.5,275.5C 291.167,275.5 282.833,275.5 274.5,275.5C 272.285,270.068 269.785,264.735 267,259.5C 266.501,263.821 266.334,268.154 266.5,272.5C 267.833,272.5 269.167,272.5 270.5,272.5C 270.5,273.5 270.5,274.5 270.5,275.5C 264.833,275.5 259.167,275.5 253.5,275.5C 253.694,273.088 255.027,272.088 257.5,272.5C 257.5,261.5 257.5,250.5 257.5,239.5C 256.178,239.67 255.011,239.337 254,238.5C 253.502,241.817 253.335,245.15 253.5,248.5C 252.5,248.5 251.5,248.5 250.5,248.5C 250.88,243.89 248.88,241.224 244.5,240.5C 244.334,250.839 244.5,261.172 245,271.5C 246.011,272.337 247.178,272.67 248.5,272.5C 248.5,273.5 248.5,274.5 248.5,275.5C 243.167,275.5 237.833,275.5 232.5,275.5C 232.5,274.5 232.5,273.5 232.5,272.5C 234.124,272.64 235.29,271.973 236,270.5C 236.5,260.506 236.666,250.506 236.5,240.5C 235.07,240.421 233.736,240.754 232.5,241.5C 228.126,250.994 226.126,250.328 226.5,239.5C 225.5,239.5 224.5,239.5 223.5,239.5C 223.865,249.557 223.365,259.557 222,269.5C 220.668,271.66 219.168,273.66 217.5,275.5C 213.167,275.5 208.833,275.5 204.5,275.5C 201.954,273.075 200.454,270.075 200,266.5C 199.5,257.506 199.334,248.506 199.5,239.5C 198.5,239.5 197.5,239.5 196.5,239.5C 196.5,238.5 196.5,237.5 196.5,236.5C 201.833,236.5 207.167,236.5 212.5,236.5C 212.5,237.5 212.5,238.5 212.5,239.5C 211.178,239.33 210.011,239.663 209,240.5C 208.077,250.574 208.41,260.574 210,270.5C 213.206,272.124 215.872,271.458 218,268.5C 219.733,258.846 219.9,249.179 218.5,239.5C 216.897,239.688 215.563,239.188 214.5,238C 216.459,236.904 218.625,236.404 221,236.5C 235.495,236.615 249.995,236.615 264.5,236.5C 277.46,234.295 282.96,239.628 281,252.5C 279.692,254.641 278.192,256.641 276.5,258.5C 284.956,277.767 288.956,276.933 288.5,256C 288.333,251.167 288.167,246.333 288,241.5C 287.29,240.027 286.124,239.36 284.5,239.5C 284.5,238.5 284.5,237.5 284.5,236.5C 289.5,236.5 294.5,236.5 299.5,236.5 Z M 266.5,240.5 C 270.971,240.641 272.971,242.975 272.5,247.5C 273.012,252.199 271.012,254.532 266.5,254.5C 266.5,249.833 266.5,245.167 266.5,240.5 Z"/></g>
</svg>
